<?xml version="1.0" encoding="UTF-8" standalone="no"?>
<!-- Created with Inkscape (http://www.inkscape.org/) -->

<svg
   width="179.00079mm"
   height="46.001003mm"
   viewBox="0 0 179.00079 46.001003"
   version="1.1"
   id="svg1"
   inkscape:version="1.3.2 (091e20e, 2023-11-25, custom)"
   sodipodi:docname="AQ.svg"
   xml:space="preserve"
   xmlns:inkscape="http://www.inkscape.org/namespaces/inkscape"
   xmlns:sodipodi="http://sodipodi.sourceforge.net/DTD/sodipodi-0.dtd"
   xmlns="http://www.w3.org/2000/svg"
   xmlns:svg="http://www.w3.org/2000/svg"><sodipodi:namedview
     id="namedview1"
     pagecolor="#ffffff"
     bordercolor="#999999"
     borderopacity="1"
     inkscape:showpageshadow="2"
     inkscape:pageopacity="0"
     inkscape:pagecheckerboard="0"
     inkscape:deskcolor="#d1d1d1"
     inkscape:document-units="mm"
     inkscape:zoom="0.70710678"
     inkscape:cx="967.32208"
     inkscape:cy="135.0574"
     inkscape:window-width="2301"
     inkscape:window-height="1319"
     inkscape:window-x="502"
     inkscape:window-y="18"
     inkscape:window-maximized="0"
     inkscape:current-layer="layer1"
     showguides="true"><sodipodi:guide
       position="-227.58088,696.03748"
       orientation="1,0"
       id="guide3"
       inkscape:locked="false" /><inkscape:page
       x="-1.5276941e-06"
       y="2.1500994e-06"
       width="179.00079"
       height="46.001003"
       id="page3"
       margin="0"
       bleed="0" /></sodipodi:namedview><defs
     id="defs1" /><g
     inkscape:label="Layer 1"
     inkscape:groupmode="layer"
     id="layer1"
     transform="translate(-167.8996,-447.20954)"><g
       id="g602"><g
         id="g601"><path
           id="path158"
           style="fill:#000000;fill-opacity:1;stroke:#ffffff;stroke-width:0.63834;stroke-linecap:square;stroke-linejoin:miter;stroke-miterlimit:14.8;stroke-dasharray:none;stroke-opacity:1"
           d="m 188.03452,451.43084 c -7.68087,0.82559 -13.32477,3.62924 -13.32477,3.62924 l 3.34605,0.55914 c -2.37583,1.21204 -4.31944,2.47375 -5.93814,3.71553 v 6.05855 c 0.74149,-0.16077 1.24385,-0.24185 1.24385,-0.24185 -0.4452,0.39813 -0.85378,0.79696 -1.24385,1.1958 v 9.26816 c 2.15129,-2.28567 3.68866,-3.49332 3.68866,-3.49332 -3.43708,8.44668 -2.54326,13.93466 -1.38596,16.86718 h 2.69596 l 4.39301,-9.48572 c -0.74881,3.87561 -0.41829,7.00237 0.40308,9.48572 h 6.07767 c 0.2788,-1.85019 0.75395,-2.77967 0.75395,-2.77967 0.0716,0.99168 0.22068,1.91194 0.42168,2.77967 h 6.4115 c -0.0516,-0.23389 -0.15658,-0.66766 -0.15658,-0.66766 0.0912,0.23632 0.19414,0.44831 0.29352,0.66766 h 4.57078 c -3.36938,-9.24858 2.59364,-11.61014 2.59364,-11.61014 6.25759,-5.04825 17.45578,1.32705 17.45578,1.32705 1.61391,4.80082 0.33073,6.84403 0.33073,6.84403 12.38049,-13.71772 -2.24379,-20.06131 -2.24379,-20.06131 -6.48486,-9.58821 -14.72662,-13.18778 -22.30355,-14.05806 z" /><path
           id="path159"
           style="fill:#ffffff;fill-opacity:1;stroke:none;stroke-width:0.216999;stroke-linecap:round;stroke-linejoin:round;stroke-opacity:1"
           d="m 192.35208,452.93773 c -6.39903,-0.0873 -11.31714,1.45779 -11.31714,1.45779 5.61272,-0.24174 10.51461,2.98793 10.51461,2.98793 l -11.58689,-0.39222 c -2.61278,0.60432 -5.62426,2.89193 -7.845,4.85345 v 1.30328 c 6.67395,-2.80033 13.19196,-0.56018 13.19196,-0.56018 -6.48357,0.0759 -10.58804,2.5116 -13.19196,5.48029 v 5.04 c 5.38686,-5.10081 12.02769,-6.94738 12.02769,-6.94738 -12.92681,10.6565 -8.3597,21.79867 -8.3597,21.79867 2.43054,-11.15402 11.4577,-15.7241 11.4577,-15.7241 -5.5273,6.62532 -4.91986,12.76596 -3.4525,16.75401 h 2.70526 c 1.09138,-6.91073 5.76657,-10.08982 5.76657,-10.08982 -2.59102,3.83476 -2.86767,7.23347 -2.04122,10.08982 h 3.9269 c -0.34626,-5.21237 1.93735,-9.56324 1.93735,-9.56324 -1.11438,4.30387 -0.13878,7.44834 1.16788,9.56324 h 1.5782 c -5.12092,-13.03873 9.06508,-15.50551 9.06508,-15.50551 -14.61584,-3.64301 -22.79086,8.45685 -22.79086,8.45685 3.78582,-8.04536 13.25398,-10.69392 13.25398,-10.69392 -2.60843,-0.95064 -2.61328,-0.84233 -2.61328,-0.84233 2.06957,-1.19295 5.09271,-0.92552 5.09271,-0.92552 2.15496,-0.75455 0.10232,-1.94717 0.10232,-1.94717 -5.75347,0.0772 -7.54166,-6.14588 -7.54166,-6.14588 -10.20876,0.2227 -8.65735,-1.43144 -8.65735,-1.43144 4.53787,0.34703 11.19363,-0.38757 11.19363,-0.38757 9.76466,1.00147 15.74168,6.22391 15.74168,6.22391 1.20625,-0.5061 -2.81947,-4.92115 -2.81947,-4.92115 1.16079,0.35934 5.95106,3.27887 5.95106,3.27887 -6.05127,-8.91638 -15.20531,-11.11179 -22.45755,-11.21068 z" /><path
           style="fill:#ffffff;fill-opacity:1;stroke-width:0.216999;stroke-linecap:round;stroke-linejoin:round"
           d="m 198.85381,461.85211 5.64116,1.52383 c 0,0 -4.58674,2.36691 -5.64116,-1.52383 z"
           id="path160" /><path
           style="fill:#ffffff;fill-opacity:1;stroke:none;stroke-width:0.216999;stroke-linecap:round;stroke-linejoin:round;stroke-opacity:1"
           d="m 217.08031,465.42395 c 0,0 -4.36121,1.96745 -4.33254,5.03349 0,0 0.37735,1.07749 -0.60334,2.1921 0,0 -8.44109,-3.48115 -14.44073,-2.33207 0,0 8.9134,0.17025 19.36302,5.1672 0,0 0.61918,-0.42849 -1.36368,-1.40056 0,0 -1.99853,-0.67458 -1.70685,-2.61186 0,0 4.18989,-1.80349 4.7738,-5.17299"
           id="path161" /><path
           style="fill:#000000;fill-opacity:1;stroke:none;stroke-width:0.544545;stroke-linecap:round;stroke-linejoin:round;stroke-dasharray:none;stroke-opacity:1"
           d="m 213.89511,470.30077 c 0,0 1.36048,-3.69811 3.03026,-2.44418 0,0 0.0173,2.25183 -3.03026,2.44418 z"
           id="path162" /><ellipse
           style="fill:#000000;fill-opacity:1;stroke:none;stroke-width:0.673725;stroke-linecap:round;stroke-linejoin:round;stroke-dasharray:none;stroke-opacity:1"
           id="ellipse162"
           cx="226.01064"
           cy="451.53864"
           rx="1.2983911"
           ry="0.91306198"
           transform="rotate(3.0091624)" /><path
           d="m 202.52952,462.82382 -1.1401,-0.30953 a 0.59365283,0.59365283 0 0 0 -0.03,0.15182 0.59365283,0.59365283 0 0 0 0.56168,0.62405 0.59365283,0.59365283 0 0 0 0.60841,-0.46634 z"
           style="fill:#ffffff;stroke-width:0.544545;stroke-linecap:round;stroke-linejoin:round"
           id="path163" /><path
           style="fill:none;fill-opacity:1;stroke:none;stroke-width:0.544545;stroke-linecap:round;stroke-linejoin:round;stroke-dasharray:none;stroke-opacity:1"
           d="m 220.70488,485.46613 c 0,0 3.07967,-3.61445 1.94398,-9.00522"
           id="path164" /><text
           xml:space="preserve"
           style="font-style:normal;font-variant:normal;font-weight:normal;font-stretch:normal;font-size:21.9431px;font-family:Holborn;-inkscape-font-specification:Holborn;text-align:center;letter-spacing:0.842952px;text-anchor:middle;fill:#f9f9f9;fill-opacity:1;stroke:#f9f9f9;stroke-width:0.611705;stroke-linecap:square;stroke-linejoin:miter;stroke-miterlimit:13.6;stroke-dasharray:none;stroke-opacity:1;paint-order:fill markers stroke"
           x="224.97112"
           y="487.81094"
           id="text9"
           transform="scale(1.0208909,0.97953659)"><tspan
             sodipodi:role="line"
             id="tspan8"
             style="font-size:21.9431px;text-align:start;text-anchor:start;stroke-width:0.611705"
             x="224.97112"
             y="487.81094"
             dy="9.6216059">alessio</tspan><tspan
             sodipodi:role="line"
             style="font-size:21.9431px;text-align:start;text-anchor:start;stroke-width:0.611705"
             x="224.97112"
             y="515.23981"
             id="tspan9" /></text><text
           xml:space="preserve"
           style="font-style:normal;font-variant:normal;font-weight:normal;font-stretch:normal;font-size:21.9431px;font-family:Holborn;-inkscape-font-specification:Holborn;text-align:center;letter-spacing:0.758706px;text-anchor:middle;fill:#f9f9f9;fill-opacity:1;stroke:#f9f9f9;stroke-width:0.550571;stroke-linecap:square;stroke-linejoin:miter;stroke-miterlimit:13.6;stroke-dasharray:none;stroke-opacity:1;paint-order:fill markers stroke"
           x="224.44534"
           y="477.93964"
           id="text10"
           transform="scale(1.0208909,0.97953659)"><tspan
             sodipodi:role="line"
             style="font-size:21.9431px;text-align:start;text-anchor:start;stroke-width:0.550571"
             x="224.44534"
             y="477.93964"
             id="tspan10">quattrotto</tspan></text><text
           xml:space="preserve"
           style="font-style:normal;font-variant:normal;font-weight:normal;font-stretch:normal;font-size:5.85152px;font-family:Holborn;-inkscape-font-specification:Holborn;text-align:start;letter-spacing:0px;text-anchor:start;fill:#ffffff;fill-opacity:1;stroke:none;stroke-width:3.51091;stroke-linecap:round;stroke-linejoin:miter;stroke-miterlimit:5.7;stroke-dasharray:none;stroke-opacity:1;paint-order:fill markers stroke"
           x="333.9382"
           y="460.37897"
           id="text11"
           transform="scale(0.94888402,1.0538696)"><tspan
             sodipodi:role="line"
             id="tspan11"
             style="font-style:normal;font-variant:normal;font-weight:normal;font-stretch:normal;font-size:5.85152px;font-family:'LEMON MILK';-inkscape-font-specification:'LEMON MILK';fill:#ffffff;stroke:none;stroke-width:3.51091"
             x="333.9382"
             y="460.37897">trainer</tspan></text><text
           xml:space="preserve"
           style="font-style:normal;font-variant:normal;font-weight:normal;font-stretch:normal;font-size:5.85152px;font-family:'LEMON MILK';-inkscape-font-specification:'LEMON MILK';text-align:start;letter-spacing:0px;text-anchor:start;fill:#ffffff;fill-opacity:1;stroke:none;stroke-width:3.51091;stroke-linecap:round;stroke-linejoin:miter;stroke-miterlimit:5.7;stroke-dasharray:none;stroke-opacity:1;paint-order:fill markers stroke"
           x="327.1181"
           y="454.67859"
           id="text12"
           transform="scale(0.94888402,1.0538696)"><tspan
             sodipodi:role="line"
             id="tspan12"
             style="font-size:5.85152px;stroke-width:3.51091"
             x="327.1181"
             y="454.67859">personal</tspan></text><rect
           style="fill:none;fill-opacity:1;stroke:#f9f9f9;stroke-width:2.61304;stroke-linecap:round;stroke-linejoin:miter;stroke-miterlimit:5.7;stroke-dasharray:none;stroke-opacity:1;paint-order:fill markers stroke"
           id="rect426"
           width="176.38776"
           height="43.38797"
           x="169.20612"
           y="448.51605" /></g></g></g><style
     id="style1" /><style
     id="style1-5" /></svg>
