<?xml version="1.0" encoding="UTF-8" standalone="no"?>
<!-- Created with Inkscape (http://www.inkscape.org/) -->

<svg
   width="55.330376mm"
   height="56.331146mm"
   viewBox="0 0 55.330376 56.331146"
   version="1.1"
   id="svg1"
   inkscape:version="1.3.2 (091e20e, 2023-11-25, custom)"
   sodipodi:docname="AQ.svg"
   xml:space="preserve"
   xmlns:inkscape="http://www.inkscape.org/namespaces/inkscape"
   xmlns:sodipodi="http://sodipodi.sourceforge.net/DTD/sodipodi-0.dtd"
   xmlns="http://www.w3.org/2000/svg"
   xmlns:svg="http://www.w3.org/2000/svg"><sodipodi:namedview
     id="namedview1"
     pagecolor="#ffffff"
     bordercolor="#999999"
     borderopacity="1"
     inkscape:showpageshadow="2"
     inkscape:pageopacity="0"
     inkscape:pagecheckerboard="0"
     inkscape:deskcolor="#d1d1d1"
     inkscape:document-units="mm"
     inkscape:zoom="0.70710678"
     inkscape:cx="967.32208"
     inkscape:cy="135.0574"
     inkscape:window-width="2301"
     inkscape:window-height="1319"
     inkscape:window-x="502"
     inkscape:window-y="18"
     inkscape:window-maximized="0"
     inkscape:current-layer="layer1"
     showguides="true"><sodipodi:guide
       position="-416.29285,267.26436"
       orientation="1,0"
       id="guide3"
       inkscape:locked="false" /><inkscape:page
       x="-3.2718162e-06"
       y="5.5739743e-08"
       width="55.330376"
       height="56.331146"
       id="page3"
       margin="0"
       bleed="0" /></sodipodi:namedview><defs
     id="defs1" /><g
     inkscape:label="Layer 1"
     inkscape:groupmode="layer"
     id="layer1"
     transform="translate(-356.61158,-18.436411)"><g
       id="g2"
       inkscape:export-filename="..\..\..\..\..\AlessioQuattrotto\gestionale_alessio\public\logo-red.svg"
       inkscape:export-xdpi="96"
       inkscape:export-ydpi="96"><path
         style="fill:none;fill-opacity:1;stroke:#ffffff;stroke-width:0.566102;stroke-linecap:round;stroke-linejoin:round;stroke-miterlimit:13.6;stroke-dasharray:none;stroke-opacity:1;paint-order:fill markers stroke"
         d="m 393.73596,71.000189 -1.93541,0.844685 2.94542,0.164881 c 0,0 -8.43619,5.092532 -18.7415,0.677008 l 1.92707,-2.251456 10.13148,-0.330937 z"
         id="path307"
         sodipodi:nodetypes="ccccccc" /><path
         style="fill:none;fill-opacity:1;stroke:#ffffff;stroke-width:0.566102;stroke-linecap:round;stroke-linejoin:round;stroke-miterlimit:13.6;stroke-dasharray:none;stroke-opacity:1;paint-order:fill markers stroke"
         d="m 375.03982,22.203769 1.93541,-0.844684 -2.94544,-0.164882 c 0,0 8.4362,-5.092525 18.74152,-0.677008 l -1.92708,2.251457 -10.13148,0.330937 z"
         id="path308"
         sodipodi:nodetypes="ccccccc" /><path
         style="fill:#f9f9f9;fill-opacity:1;stroke:#ffffff;stroke-width:0.523897;stroke-linecap:round;stroke-linejoin:round;stroke-miterlimit:13.6;stroke-dasharray:none;stroke-opacity:1;paint-order:fill markers stroke"
         d="m 391.7542,70.92378 c 0,0 5.25521,0.611551 7.05121,-0.992074 0,0 -1.17651,-0.374541 -1.59879,-0.802008 0,0 3.81265,-0.374716 5.17829,-2.056697 0,0 -1.28089,-0.262683 -1.45167,-0.74138 0,0 3.02593,-0.451453 4.56078,-2.828582 0,0 -1.22086,-0.02143 -1.45761,-0.360919 0,0 1.81252,-0.04643 3.72486,-2.928953 0,0 -1.09307,0.01016 -1.40197,-0.388702 0,0 2.07132,-0.845183 3.06971,-3.070622 0,0 -1.07415,0.08897 -1.46603,0.01677 0,0 3.14015,-3.025056 3.23375,-5.139751 0,0 -1.21045,0.392318 -1.59575,0.221717 0,0 2.32783,-3.101482 2.05652,-5.644838 0,0 -0.63926,0.832281 -1.47456,0.578096 0,0 1.91639,-2.57612 1.13122,-5.533625 0,0 -0.75786,0.759362 -1.39344,0.44345 0,0 1.29811,-2.193163 0.0956,-5.532291 0,0 -0.41006,0.951656 -1.21226,1.025843 0,0 0.50795,-3.394336 -1.1896,-5.506039 0,0 -0.0857,0.919273 -0.91062,0.826984 -0.10614,-0.135566 -0.35384,-3.154202 -2.55568,-5.220898 0,0 0.0424,0.439258 -0.43268,0.871616 0,0 -1.66202,-3.25125 -4.35354,-5.123988 0,0 0.3141,0.248732 -0.0752,0.987038 0,0 -5.61351,-4.325368 -12.73526,-5.15433 l -1.54747,6.025806 -11.65588,5.80913 c 1.29672,2.438579 7.51175,4.627055 7.05303,7.54352 l -1.13346,-0.403132 c 0,0 5.03498,6.270411 4.39711,7.615671 l -1.23057,-0.198355 c 0,0 1.60716,4.264022 0.0929,7.028028 l 2.99932,7.225617 1.13092,5.763382 2.81687,2.926511 z"
         id="path309"
         sodipodi:nodetypes="ccccccccccccccccccccccccccccccccccccc" /><path
         d="m 388.23199,40.387674 c 0,0 -1.00795,-3.423194 -6.64604,-3.405614 0,0 7.24587,-3.762748 11.32361,1.236836 0,0 -0.50904,-4.520027 -5.99386,-6.108392 0,0 6.99284,-1.783359 9.93797,4.843317 0,0 0.76948,-5.661787 -3.32484,-8.433564 0,0 7.76854,0.326312 8.35415,7.323528"
         style="fill:none;fill-opacity:1;stroke:#550000;stroke-width:0.410579;stroke-linecap:round;stroke-linejoin:round;stroke-dasharray:none;stroke-opacity:1"
         id="path310"
         sodipodi:nodetypes="ccccccc" /><path
         style="fill:#550000;fill-opacity:1;stroke:#ffffff;stroke-width:0.523897;stroke-linecap:round;stroke-linejoin:round;stroke-miterlimit:13.6;stroke-dasharray:none;stroke-opacity:1;paint-order:fill markers stroke"
         d="m 376.79933,22.298354 c 0,0 -5.2552,-0.611545 -7.05122,0.992081 0,0 1.17651,0.37454 1.59881,0.801998 0,0 -3.81266,0.374717 -5.1783,2.056701 0,0 1.2809,0.262691 1.45166,0.741385 0,0 -3.02593,0.451448 -4.56075,2.828587 0,0 1.22083,0.0214 1.45758,0.360917 0,0 -1.81251,0.04642 -3.72486,2.928946 0,0 1.09307,-0.01016 1.40197,0.388703 0,0 -2.07132,0.845181 -3.0697,3.070622 0,0 1.07415,-0.08897 1.46604,-0.01677 0,0 -3.14016,3.025057 -3.23376,5.139751 0,0 1.21044,-0.392319 1.59576,-0.221717 0,0 -2.32785,3.101481 -2.05654,5.644837 0,0 0.63928,-0.83228 1.47458,-0.578094 0,0 -1.91641,2.576118 -1.13123,5.533624 0,0 0.75785,-0.759363 1.39344,-0.44345 0,0 -1.29811,2.193164 -0.0956,5.532291 0,0 0.41007,-0.951657 1.21226,-1.025843 0,0 -0.50794,3.394336 1.18961,5.506039 0,0 0.0856,-0.919272 0.9106,-0.826985 0.10615,0.135566 0.35384,3.154196 2.55568,5.2209 0,0 -0.0422,-0.439268 0.43268,-0.871624 0,0 1.66203,3.251249 4.35354,5.123996 0,0 -0.3141,-0.248728 0.0752,-0.98705 0,0 5.61351,4.325381 12.73527,5.154342 l 1.54747,-6.025814 11.65588,-5.809121 c -1.29673,-2.438581 -7.51176,-4.627057 -7.05302,-7.543523 l 1.13346,0.403131 c 0,0 -5.035,-6.270411 -4.39711,-7.615671 l 1.23056,0.198357 c 0,0 -1.60717,-4.264024 -0.0929,-7.028029 l -2.99934,-7.225618 -1.13091,-5.763375 -2.81688,-2.926512 z"
         id="path311"
         sodipodi:nodetypes="ccccccccccccccccccccccccccccccccccccc" /><path
         style="fill:#550000;fill-opacity:1;stroke:none;stroke-width:0.283073;stroke-linecap:round;stroke-linejoin:round;stroke-dasharray:none;stroke-opacity:1"
         d="m 374.06643,43.317155 c 0,0 -3.44981,-3.52034 0.43128,-11.742921 0,0 -2.81236,1.988747 -5.74513,5.876523 0,0 -1.53557,-5.453765 4.42028,-10.326615 0,0 -2.8133,-0.429263 -4.86543,0.65818 0,0 2.06923,-3.52123 8.77053,-6.441764 l -2.52115,-0.249529 c 0,0 16.15208,-8.184853 26.76121,7.561635 0,0 8.95343,4.412073 0.81885,12.666836 0,0 0.86125,-1.246022 -0.007,-4.308713 0,0 -6.81189,-4.331616 -10.86866,-1.343479 0,0 -5.30966,1.829738 -0.33122,10.934693 0,0 -3.53478,-0.922774 -4.66318,-4.643479 0,0 -0.50867,-0.09836 0.73062,4.679188 0,0 -4.7023,-1.350643 -5.28799,-6.234119 0,0 -0.90073,0.703802 -0.95154,5.45367 0,0 -4.06969,-1.103583 -2.71972,-9.685649 z"
         id="path312"
         sodipodi:nodetypes="cccccccccccccccccc" /><path
         d="m 375.9716,43.350654 c 0,0 -2.06957,2.907073 1.42673,7.330266 0,0 -7.43472,-3.374344 -6.02152,-9.669282 0,0 -3.24033,3.192192 -1.10173,8.486756 0,0 -5.72175,-4.397951 -2.32936,-10.807194 0,0 -4.92792,2.891938 -4.57884,7.823897 0,0 -4.54174,-6.311024 0.59948,-11.093517"
         style="fill:none;fill-opacity:1;stroke:#ffffff;stroke-width:0.410579;stroke-linecap:round;stroke-linejoin:round;stroke-dasharray:none;stroke-opacity:1"
         id="path313"
         sodipodi:nodetypes="ccccccc" /><path
         style="fill:#ffffff;fill-opacity:1;stroke:none;stroke-width:0.135736;stroke-linecap:round;stroke-linejoin:round;stroke-opacity:1"
         d="m 378.27991,20.74915 c 0,0 14.19101,-3.742541 20.82051,7.075792 0,0 -2.90845,-1.963411 -3.62332,-2.221662 0,0 2.38707,2.87579 1.61866,3.156969 0,0 -3.58264,-3.437174 -9.65488,-4.346759 0,0 -4.18021,0.265735 -7.0056,-0.08301 0,0 -1.01745,0.988455 5.36785,1.146038 0,0 0.93645,3.940392 4.53374,4.059371 0,0 1.24784,0.804898 -0.12064,1.213762 0,0 -1.88135,-0.254979 -3.20918,0.43027 0,0 0.006,-0.06741 1.60848,0.602386 0,0 -5.99321,1.37945 -8.59258,6.296503 0,0 5.45999,-7.322666 14.48666,-4.621556 0,0 -10.44672,1.311623 -5.20095,11.570313 0,0 -4.05735,-2.684222 -2.35181,-8.200747 0,0 -2.81736,2.727669 -1.24928,8.240812 0,0 -5.20345,-3.254003 -1.12442,-8.680875 0,0 -4.74774,0.812625 -4.79256,7.432088 0,0 -3.58522,-4.874552 1.85,-11.742023 0,0 -5.77331,2.592989 -7.61622,9.491828 0,0 -2.52979,-7.094855 5.85719,-13.377729 0,0 -7.28089,1.660115 -10.68875,7.518287 0,0 0.9677,-10.08413 11.51998,-9.716931 0,0 -3.45417,-1.575371 -9.13899,-0.02701 0,0 3.06237,-2.931678 6.00823,-3.36476 l 7.18104,0.321252 c 0,0 -2.96915,-2.160518 -6.48322,-2.172602 z"
         id="path314"
         sodipodi:nodetypes="ccccccccccccccccccccccccccc" /><path
         style="fill:#ffffff;fill-opacity:1;stroke-width:0.135736;stroke-linecap:round;stroke-linejoin:round"
         d="m 389.19725,25.926373 3.48052,1.116138 c 0,0 -2.93477,1.345622 -3.48052,-1.116138 z"
         id="path315" /><path
         style="fill:#ffffff;fill-opacity:1;stroke:none;stroke-width:0.135736;stroke-linecap:round;stroke-linejoin:round;stroke-opacity:1"
         d="m 400.48207,28.688013 c 0,0 -2.78223,1.102586 -2.85345,3.019183 0,0 0.20446,0.684245 -0.44068,1.352175 0,0 -1.36266,-0.637589 -3.20058,-1.18481 -1.74314,-0.518977 -3.91376,-0.956714 -5.7548,-0.692094 0,0 5.5645,0.365474 11.94862,3.791497 0,0 0.39932,-0.249741 -0.81138,-0.914762 0,0 -1.22919,-0.479591 -0.9906,-1.681624 0,0 2.67043,-1.005115 3.13321,-3.093502"
         id="path316"
         sodipodi:nodetypes="cccsccccc" /><path
         style="fill:#550000;fill-opacity:1;stroke:none;stroke-width:0.340621;stroke-linecap:round;stroke-linejoin:round;stroke-dasharray:none;stroke-opacity:1"
         d="m 398.3501,31.642689 c 0,0 0.95758,-2.271179 1.96445,-1.43914 0,0 -0.0546,1.407544 -1.96445,1.43914 z"
         id="path317" /><ellipse
         style="fill:#550000;fill-opacity:1;stroke:none;stroke-width:0.421427;stroke-linecap:round;stroke-linejoin:round;stroke-dasharray:none;stroke-opacity:1"
         id="ellipse317"
         cx="391.84695"
         cy="-12.193632"
         rx="0.81216556"
         ry="0.57113576"
         transform="rotate(5.6726204)" /><path
         d="m 380.32155,52.834462 c 0,0 1.00795,3.423193 6.64604,3.405613 0,0 -7.24587,3.762748 -11.32361,-1.236835 0,0 0.50903,4.520026 5.99385,6.108391 0,0 -6.99284,1.783365 -9.93797,-4.843315 0,0 -0.76948,5.66179 3.32482,8.433558 0,0 -7.76853,-0.326305 -8.35413,-7.323522"
         style="fill:none;fill-opacity:1;stroke:#ffffff;stroke-width:0.410579;stroke-linecap:round;stroke-linejoin:round;stroke-dasharray:none;stroke-opacity:1"
         id="path318"
         sodipodi:nodetypes="ccccccc" /><path
         style="fill:none;fill-opacity:1;stroke:#ffffff;stroke-width:0.328114;stroke-linecap:round;stroke-linejoin:round;stroke-miterlimit:13.6;stroke-dasharray:none;stroke-opacity:1;paint-order:fill markers stroke"
         d="m 360.08229,49.764153 c 0,0 0.154,3.803824 0.92409,5.041268"
         id="path319" /><path
         style="fill:none;fill-opacity:1;stroke:#ffffff;stroke-width:0.328114;stroke-linecap:round;stroke-linejoin:round;stroke-miterlimit:13.6;stroke-dasharray:none;stroke-opacity:1;paint-order:fill markers stroke"
         d="m 361.30558,52.14084 c 0,0 0,2.274626 0.71875,3.096019"
         id="path320" /><path
         style="fill:#550000;fill-opacity:1;stroke:none;stroke-width:0.0100518;stroke-linecap:round;stroke-linejoin:round;stroke-miterlimit:13.6;stroke-dasharray:none;stroke-opacity:1;paint-order:fill markers stroke"
         d="m 389.19724,25.926373 3.48053,1.116138 -0.37814,-1.018637 -1.43667,-0.443965 z"
         id="path321" /><path
         style="fill:#550000;fill-opacity:1;stroke:#f9f9f9;stroke-width:0.283073;stroke-linecap:round;stroke-linejoin:round;stroke-dasharray:none;stroke-opacity:1"
         d="m 394.4871,49.904982 c 0,0 3.84701,2.990741 -0.0341,11.213323 0,0 2.41514,-1.45915 5.34792,-5.346925 0,0 1.53555,5.453763 -4.42029,10.326617 0,0 2.8133,0.429264 4.86544,-0.658173 0,0 -2.06923,3.521217 -8.77053,6.441753 l 2.52114,0.249525 c 0,0 -16.15208,8.184859 -26.76122,-7.561628 0,0 -8.95343,-4.412075 -0.81884,-12.666838 0,0 -0.86125,1.246021 0.007,4.308712 0,0 6.81188,4.331617 10.86866,1.343479 0,0 5.30967,-1.829737 0.33124,-10.934693 0,0 3.53478,0.922774 4.66316,4.64348 0,0 0.5087,0.09836 -0.73062,-4.679188 0,0 4.40439,1.714742 6.1817,6.300318 0,0 0.007,-0.770001 0.0578,-5.519868 0,0 4.06968,1.103581 2.71974,9.685649 z"
         id="path322"
         sodipodi:nodetypes="cccccccccccccccccc" /><path
         style="fill:#ffffff;fill-opacity:1;stroke:none;stroke-width:0.135736;stroke-linecap:round;stroke-linejoin:round;stroke-opacity:1"
         d="m 390.27362,72.472994 c 0,0 -14.191,3.742536 -20.82051,-7.075807 0,0 2.90845,1.963411 3.62332,2.221673 0,0 -2.38707,-2.875797 -1.61866,-3.156978 0,0 3.58263,3.437176 9.65489,4.346757 0,0 4.1802,-0.265726 7.00558,0.08302 0,0 1.01747,-0.988463 -5.36783,-1.146047 0,0 -0.93645,-3.940392 -4.53373,-4.059372 0,0 -1.24786,-0.804894 0.12064,-1.213754 0,0 1.88136,0.254965 3.20918,-0.430282 0,0 -0.006,0.06742 -1.60849,-0.60238 0,0 5.99321,-1.37945 8.59258,-6.296503 0,0 -5.45998,7.322665 -14.48666,4.621556 0,0 10.44672,-1.311623 5.20097,-11.570311 0,0 4.05734,2.684221 2.3518,8.200745 0,0 2.81736,-2.727669 1.24928,-8.240811 0,0 5.20344,3.254002 1.12442,8.680874 0,0 4.74774,-0.812624 4.79255,-7.432088 0,0 3.58523,4.874552 -1.85,11.742024 0,0 5.77331,-2.592988 7.61621,-9.491829 0,0 2.5298,7.094855 -5.85718,13.377727 0,0 7.28088,-1.660119 10.68874,-7.518285 0,0 -0.96768,10.084136 -11.51996,9.716926 0,0 3.45417,1.575371 9.13898,0.02703 0,0 -3.06237,2.931682 -6.00822,3.364771 l -7.18104,-0.321258 c 0,0 2.96915,2.160507 6.48322,2.172603 z"
         id="path323"
         sodipodi:nodetypes="ccccccccccccccccccccccccccc" /><path
         style="fill:#ffffff;fill-opacity:1;stroke-width:0.135736;stroke-linecap:round;stroke-linejoin:round"
         d="m 379.35627,67.295756 -3.4805,-1.11614 c 0,0 2.93476,-1.345616 3.4805,1.11614 z"
         id="path324" /><path
         style="fill:#ffffff;fill-opacity:1;stroke:none;stroke-width:0.135736;stroke-linecap:round;stroke-linejoin:round;stroke-opacity:1"
         d="m 368.07145,64.534127 c 0,0 2.78225,-1.10259 2.85346,-3.019187 0,0 -0.20447,-0.684246 0.44067,-1.352175 0,0 1.36267,0.63759 3.20059,1.184809 1.74314,0.518985 3.91376,0.956708 5.75481,0.692102 0,0 -5.5645,-0.365482 -11.94863,-3.791504 0,0 -0.39932,0.249741 0.81138,0.914762 0,0 1.22919,0.479591 0.9906,1.681625 0,0 -2.67043,1.00511 -3.13321,3.093511"
         id="path325"
         sodipodi:nodetypes="cccsccccc" /><path
         style="fill:#550000;fill-opacity:1;stroke:none;stroke-width:0.340621;stroke-linecap:round;stroke-linejoin:round;stroke-dasharray:none;stroke-opacity:1"
         d="m 370.20343,61.579447 c 0,0 -0.95758,2.271178 -1.96446,1.439147 0,0 0.0546,-1.407552 1.96446,-1.439147 z"
         id="path326" /><ellipse
         style="fill:#550000;fill-opacity:1;stroke:none;stroke-width:0.421427;stroke-linecap:round;stroke-linejoin:round;stroke-dasharray:none;stroke-opacity:1"
         id="ellipse326"
         cx="-382.15741"
         cy="-28.99218"
         rx="0.81216556"
         ry="0.57113576"
         transform="rotate(-174.32738)" /><path
         style="fill:none;fill-opacity:1;stroke:#550000;stroke-width:0.328114;stroke-linecap:round;stroke-linejoin:round;stroke-miterlimit:13.6;stroke-dasharray:none;stroke-opacity:1;paint-order:fill markers stroke"
         d="m 408.47123,43.457983 c 0,0 -0.15399,-3.803824 -0.92407,-5.041267"
         id="path327" /><path
         style="fill:none;fill-opacity:1;stroke:#550000;stroke-width:0.328114;stroke-linecap:round;stroke-linejoin:round;stroke-miterlimit:13.6;stroke-dasharray:none;stroke-opacity:1;paint-order:fill markers stroke"
         d="m 407.24795,41.081295 c 0,0 0,-2.274625 -0.71874,-3.096019"
         id="path328" /><path
         style="fill:#550000;fill-opacity:1;stroke:none;stroke-width:0.0100518;stroke-linecap:round;stroke-linejoin:round;stroke-miterlimit:13.6;stroke-dasharray:none;stroke-opacity:1;paint-order:fill markers stroke"
         d="m 379.35628,67.295756 -3.48051,-1.11614 0.37814,1.018643 1.43667,0.443968 z"
         id="path329" /><path
         d="m 392.7601,49.757278 c 0,0 2.06956,-2.907071 -1.42671,-7.330263 0,0 7.43471,3.374342 6.02152,9.66928 0,0 3.24032,-3.192191 1.1017,-8.486754 0,0 5.72176,4.397948 2.32936,10.807191 0,0 4.92794,-2.891937 4.57885,-7.823895 0,0 4.54174,6.311025 -0.59949,11.093516"
         style="fill:none;fill-opacity:1;stroke:#550000;stroke-width:0.410579;stroke-linecap:round;stroke-linejoin:round;stroke-dasharray:none;stroke-opacity:1"
         id="path330"
         sodipodi:nodetypes="ccccccc" /></g></g><style
     id="style1" /></svg>
